<svg width="80" height="80" viewBox="0 0 80 80" fill="none" xmlns="http://www.w3.org/2000/svg">
<g clip-path="url(#clip0_13_5630)">
<path fill-rule="evenodd" clip-rule="evenodd" d="M71.875 15.875C65.8125 8.125 56.9375 3.1875 47.125 3.1875C28.125 3.1875 14.1875 20.875 14.1875 40C14.1875 53.3125 23.0625 63.3125 32.875 63.3125C33.8125 63.3125 34.6875 63.25 35.625 63.0625C29 58.25 24.8125 49.5 24.8125 40C24.8125 24.875 35.0625 13.0625 47.125 13.0625C60.3125 13.0625 69.4375 26.125 69.4375 40C69.375 50.25 65.75 60.4375 59.3125 67.9375C53.6875 74.5 46.4375 78.625 38.4375 79.9375C38.4375 79.9375 39.125 80 40 80C62.0625 80 80 62.0625 80 40C80 30.9375 77 22.5625 71.875 15.875ZM65.8125 40C65.8125 26.6875 56.9375 16.6875 47.125 16.6875C46.1875 16.6875 45.3125 16.75 44.375 16.9375C51 21.75 55.1875 30.5 55.1875 40C55.1875 55.125 44.9375 66.9375 32.875 66.9375C19.6875 66.9375 10.5625 53.875 10.5625 40C10.625 29.75 14.25 19.5625 20.6875 12.0625C26.3125 5.5 33.5625 1.375 41.5625 0.0625C41.5625 0.0625 40.875 0 40 0C17.9375 0 0 17.9375 0 40C0 49.0625 3 57.4375 8.125 64.125C14.1875 71.875 23.0625 76.75 32.875 76.75C51.875 76.8125 65.8125 59.125 65.8125 40Z" fill="white"/>
</g>
<defs>
<clipPath id="clip0_13_5630">
<rect width="80" height="80" fill="white"/>
</clipPath>
</defs>
</svg>
