<svg width="32" height="32" viewBox="0 0 32 32" fill="none" xmlns="http://www.w3.org/2000/svg">
<g clip-path="url(#clip0_19_6523)">
<path fill-rule="evenodd" clip-rule="evenodd" d="M28.75 6.35C26.325 3.25 22.775 1.275 18.85 1.275C11.25 1.275 5.675 8.35 5.675 16C5.675 21.325 9.225 25.325 13.15 25.325C13.525 25.325 13.875 25.3 14.25 25.225C11.6 23.3 9.925 19.8 9.925 16C9.925 9.95 14.025 5.225 18.85 5.225C24.125 5.225 27.775 10.45 27.775 16C27.75 20.1 26.3 24.175 23.725 27.175C21.475 29.8 18.575 31.45 15.375 31.975C15.375 31.975 15.65 32 16 32C24.825 32 32 24.825 32 16C32 12.375 30.8 9.025 28.75 6.35ZM26.325 16C26.325 10.675 22.775 6.675 18.85 6.675C18.475 6.675 18.125 6.7 17.75 6.775C20.4 8.7 22.075 12.2 22.075 16C22.075 22.05 17.975 26.775 13.15 26.775C7.875 26.775 4.225 21.55 4.225 16C4.25 11.9 5.7 7.825 8.275 4.825C10.525 2.2 13.425 0.55 16.625 0.025C16.625 0.025 16.35 0 16 0C7.175 0 0 7.175 0 16C0 19.625 1.2 22.975 3.25 25.65C5.675 28.75 9.225 30.7 13.15 30.7C20.75 30.725 26.325 23.65 26.325 16Z" fill="#FCB900"/>
</g>
<defs>
<clipPath id="clip0_19_6523">
<rect width="32" height="32" fill="white"/>
</clipPath>
</defs>
</svg>
