<svg width="25" height="25" viewBox="0 0 25 25" fill="none" xmlns="http://www.w3.org/2000/svg">
<path d="M19.7917 14.1522V10.4168C19.7917 7.06579 17.5156 4.24287 14.4323 3.39391C14.1271 2.62516 13.3813 2.0835 12.5 2.0835C11.6188 2.0835 10.8729 2.62516 10.5677 3.39391C7.48438 4.24391 5.20833 7.06579 5.20833 10.4168V14.1522L3.43021 15.9304C3.33329 16.0269 3.25643 16.1417 3.20405 16.2681C3.15167 16.3945 3.1248 16.53 3.125 16.6668V18.7502C3.125 19.0264 3.23475 19.2914 3.4301 19.4867C3.62545 19.6821 3.8904 19.7918 4.16667 19.7918H20.8333C21.1096 19.7918 21.3746 19.6821 21.5699 19.4867C21.7653 19.2914 21.875 19.0264 21.875 18.7502V16.6668C21.8752 16.53 21.8483 16.3945 21.796 16.2681C21.7436 16.1417 21.6667 16.0269 21.5698 15.9304L19.7917 14.1522ZM19.7917 17.7085H5.20833V17.0981L6.98646 15.32C7.08338 15.2234 7.16024 15.1086 7.21262 14.9822C7.265 14.8558 7.29187 14.7203 7.29167 14.5835V10.4168C7.29167 7.54495 9.62813 5.2085 12.5 5.2085C15.3719 5.2085 17.7083 7.54495 17.7083 10.4168V14.5835C17.7083 14.8606 17.8177 15.1252 18.0135 15.32L19.7917 17.0981V17.7085ZM12.5 22.9168C13.1451 22.9176 13.7744 22.7175 14.3005 22.3441C14.8266 21.9707 15.2233 21.4427 15.4354 20.8335H9.56458C9.77673 21.4427 10.1734 21.9707 10.6995 22.3441C11.2256 22.7175 11.8549 22.9176 12.5 22.9168Z" fill="black"/>
</svg>
