<svg width="38" height="50" viewBox="0 0 38 50" fill="none" xmlns="http://www.w3.org/2000/svg">
<path fill-rule="evenodd" clip-rule="evenodd" d="M0.25 48.4375V6.25C0.25 4.5924 0.90848 3.00269 2.08058 1.83058C3.25269 0.65848 4.8424 0 6.5 0L31.5 0C33.1576 0 34.7473 0.65848 35.9194 1.83058C37.0915 3.00269 37.75 4.5924 37.75 6.25V48.4375C37.7502 48.7088 37.6797 48.9755 37.5455 49.2114C37.4114 49.4472 37.2181 49.644 36.9847 49.7825C36.7514 49.9209 36.486 49.9962 36.2147 50.0009C35.9434 50.0056 35.6755 49.9396 35.4375 49.8094L19 40.8406L2.5625 49.8094C2.32447 49.9396 2.05662 50.0056 1.78533 50.0009C1.51403 49.9962 1.24865 49.9209 1.01529 49.7825C0.781927 49.644 0.588639 49.4472 0.454452 49.2114C0.320264 48.9755 0.249802 48.7088 0.25 48.4375ZM27.9188 18.2938C28.2121 18.0004 28.377 17.6024 28.377 17.1875C28.377 16.7726 28.2121 16.3746 27.9188 16.0812C27.6254 15.7879 27.2274 15.623 26.8125 15.623C26.3976 15.623 25.9996 15.7879 25.7062 16.0812L17.4375 24.3531L13.8563 20.7687C13.711 20.6235 13.5385 20.5082 13.3487 20.4296C13.1589 20.351 12.9554 20.3105 12.75 20.3105C12.5446 20.3105 12.3411 20.351 12.1513 20.4296C11.9615 20.5082 11.789 20.6235 11.6438 20.7687C11.4985 20.914 11.3832 21.0865 11.3046 21.2763C11.226 21.4661 11.1855 21.6696 11.1855 21.875C11.1855 22.0804 11.226 22.2839 11.3046 22.4737C11.3832 22.6635 11.4985 22.836 11.6438 22.9813L16.3312 27.6688C16.4764 27.8143 16.6488 27.9297 16.8386 28.0085C17.0285 28.0872 17.232 28.1278 17.4375 28.1278C17.643 28.1278 17.8465 28.0872 18.0364 28.0085C18.2262 27.9297 18.3986 27.8143 18.5438 27.6688L27.9188 18.2938Z" fill="#2D3436"/>
</svg>
