<svg width="44" height="44" viewBox="0 0 44 44" fill="none" xmlns="http://www.w3.org/2000/svg">
<path d="M5.5 5.5C5.5 4.04131 6.07946 2.64236 7.11091 1.61091C8.14236 0.579463 9.54131 0 11 0L33 0C34.4587 0 35.8576 0.579463 36.8891 1.61091C37.9205 2.64236 38.5 4.04131 38.5 5.5V42.625C38.4999 42.8737 38.4323 43.1177 38.3044 43.3311C38.1766 43.5444 37.9933 43.7191 37.774 43.8365C37.5547 43.9539 37.3077 44.0096 37.0593 43.9977C36.8109 43.9858 36.5703 43.9068 36.3632 43.769L22 36.0277L7.63675 43.769C7.42969 43.9068 7.18913 43.9858 6.9407 43.9977C6.69227 44.0096 6.44527 43.9539 6.226 43.8365C6.00673 43.7191 5.82341 43.5444 5.69556 43.3311C5.56772 43.1177 5.50013 42.8737 5.5 42.625V5.5ZM11 2.75C10.2707 2.75 9.57118 3.03973 9.05546 3.55546C8.53973 4.07118 8.25 4.77065 8.25 5.5V40.0565L21.2383 33.231C21.4639 33.0808 21.7289 33.0007 22 33.0007C22.2711 33.0007 22.5361 33.0808 22.7618 33.231L35.75 40.0565V5.5C35.75 4.77065 35.4603 4.07118 34.9445 3.55546C34.4288 3.03973 33.7293 2.75 33 2.75H11Z" fill="black"/>
</svg>
