<svg width="39" height="39" viewBox="0 0 39 39" fill="none" xmlns="http://www.w3.org/2000/svg">
<path d="M13.4062 13.4062C13.7295 13.4062 14.0395 13.5347 14.268 13.7632C14.4966 13.9918 14.625 14.3018 14.625 14.625V29.25C14.625 29.5732 14.4966 29.8832 14.268 30.1118C14.0395 30.3403 13.7295 30.4688 13.4062 30.4688C13.083 30.4688 12.773 30.3403 12.5445 30.1118C12.3159 29.8832 12.1875 29.5732 12.1875 29.25V14.625C12.1875 14.3018 12.3159 13.9918 12.5445 13.7632C12.773 13.5347 13.083 13.4062 13.4062 13.4062V13.4062ZM19.5 13.4062C19.8232 13.4062 20.1332 13.5347 20.3618 13.7632C20.5903 13.9918 20.7188 14.3018 20.7188 14.625V29.25C20.7188 29.5732 20.5903 29.8832 20.3618 30.1118C20.1332 30.3403 19.8232 30.4688 19.5 30.4688C19.1768 30.4688 18.8668 30.3403 18.6382 30.1118C18.4097 29.8832 18.2812 29.5732 18.2812 29.25V14.625C18.2812 14.3018 18.4097 13.9918 18.6382 13.7632C18.8668 13.5347 19.1768 13.4062 19.5 13.4062V13.4062ZM26.8125 14.625C26.8125 14.3018 26.6841 13.9918 26.4555 13.7632C26.227 13.5347 25.917 13.4062 25.5938 13.4062C25.2705 13.4062 24.9605 13.5347 24.732 13.7632C24.5034 13.9918 24.375 14.3018 24.375 14.625V29.25C24.375 29.5732 24.5034 29.8832 24.732 30.1118C24.9605 30.3403 25.2705 30.4688 25.5938 30.4688C25.917 30.4688 26.227 30.3403 26.4555 30.1118C26.6841 29.8832 26.8125 29.5732 26.8125 29.25V14.625Z" fill="black"/>
<path fill-rule="evenodd" clip-rule="evenodd" d="M35.3438 7.3125C35.3438 7.95897 35.0869 8.57895 34.6298 9.03607C34.1727 9.49319 33.5527 9.75 32.9062 9.75H31.6875V31.6875C31.6875 32.9804 31.1739 34.2204 30.2596 35.1346C29.3454 36.0489 28.1054 36.5625 26.8125 36.5625H12.1875C10.8946 36.5625 9.65459 36.0489 8.74035 35.1346C7.82611 34.2204 7.3125 32.9804 7.3125 31.6875V9.75H6.09375C5.44728 9.75 4.8273 9.49319 4.37018 9.03607C3.91306 8.57895 3.65625 7.95897 3.65625 7.3125V4.875C3.65625 4.22853 3.91306 3.60855 4.37018 3.15143C4.8273 2.69431 5.44728 2.4375 6.09375 2.4375H14.625C14.625 1.79103 14.8818 1.17105 15.3389 0.713927C15.796 0.256807 16.416 0 17.0625 0L21.9375 0C22.584 0 23.204 0.256807 23.6611 0.713927C24.1182 1.17105 24.375 1.79103 24.375 2.4375H32.9062C33.5527 2.4375 34.1727 2.69431 34.6298 3.15143C35.0869 3.60855 35.3438 4.22853 35.3438 4.875V7.3125ZM10.0376 9.75L9.75 9.89381V31.6875C9.75 32.334 10.0068 32.954 10.4639 33.4111C10.921 33.8682 11.541 34.125 12.1875 34.125H26.8125C27.459 34.125 28.079 33.8682 28.5361 33.4111C28.9932 32.954 29.25 32.334 29.25 31.6875V9.89381L28.9624 9.75H10.0376ZM6.09375 7.3125V4.875H32.9062V7.3125H6.09375Z" fill="black"/>
</svg>
