<svg width="17" height="17" viewBox="0 0 17 17" fill="none" xmlns="http://www.w3.org/2000/svg">
<g clip-path="url(#clip0_19_5689)">
<path d="M3 1.5C2.73478 1.5 2.48043 1.60536 2.29289 1.79289C2.10536 1.98043 2 2.23478 2 2.5V3.5C2 3.76522 2.10536 4.01957 2.29289 4.20711C2.48043 4.39464 2.73478 4.5 3 4.5H3.5V13.5C3.5 14.0304 3.71071 14.5391 4.08579 14.9142C4.46086 15.2893 4.96957 15.5 5.5 15.5H11.5C12.0304 15.5 12.5391 15.2893 12.9142 14.9142C13.2893 14.5391 13.5 14.0304 13.5 13.5V4.5H14C14.2652 4.5 14.5196 4.39464 14.7071 4.20711C14.8946 4.01957 15 3.76522 15 3.5V2.5C15 2.23478 14.8946 1.98043 14.7071 1.79289C14.5196 1.60536 14.2652 1.5 14 1.5H10.5C10.5 1.23478 10.3946 0.98043 10.2071 0.792893C10.0196 0.605357 9.76522 0.5 9.5 0.5H7.5C7.23478 0.5 6.98043 0.605357 6.79289 0.792893C6.60536 0.98043 6.5 1.23478 6.5 1.5H3ZM6 5.5C6.13261 5.5 6.25979 5.55268 6.35355 5.64645C6.44732 5.74021 6.5 5.86739 6.5 6V13C6.5 13.1326 6.44732 13.2598 6.35355 13.3536C6.25979 13.4473 6.13261 13.5 6 13.5C5.86739 13.5 5.74021 13.4473 5.64645 13.3536C5.55268 13.2598 5.5 13.1326 5.5 13V6C5.5 5.86739 5.55268 5.74021 5.64645 5.64645C5.74021 5.55268 5.86739 5.5 6 5.5V5.5ZM8.5 5.5C8.63261 5.5 8.75979 5.55268 8.85355 5.64645C8.94732 5.74021 9 5.86739 9 6V13C9 13.1326 8.94732 13.2598 8.85355 13.3536C8.75979 13.4473 8.63261 13.5 8.5 13.5C8.36739 13.5 8.24021 13.4473 8.14645 13.3536C8.05268 13.2598 8 13.1326 8 13V6C8 5.86739 8.05268 5.74021 8.14645 5.64645C8.24021 5.55268 8.36739 5.5 8.5 5.5V5.5ZM11.5 6V13C11.5 13.1326 11.4473 13.2598 11.3536 13.3536C11.2598 13.4473 11.1326 13.5 11 13.5C10.8674 13.5 10.7402 13.4473 10.6464 13.3536C10.5527 13.2598 10.5 13.1326 10.5 13V6C10.5 5.86739 10.5527 5.74021 10.6464 5.64645C10.7402 5.55268 10.8674 5.5 11 5.5C11.1326 5.5 11.2598 5.55268 11.3536 5.64645C11.4473 5.74021 11.5 5.86739 11.5 6V6Z" fill="#2D3436"/>
</g>
<defs>
<clipPath id="clip0_19_5689">
<rect width="16" height="16" fill="white" transform="translate(0.5 0.5)"/>
</clipPath>
</defs>
</svg>
