<svg width="28" height="28" viewBox="0 0 28 28" fill="none" xmlns="http://www.w3.org/2000/svg">
<path d="M22.1013 12.9642C21.5914 8.9485 18.1533 5.8335 13.9999 5.8335C10.7846 5.8335 7.99159 7.71183 6.71642 10.674C4.21042 11.4242 2.33325 13.7902 2.33325 16.3335C2.33325 19.4333 4.77042 21.951 7.82592 22.133V22.1668H20.9883V22.1633L20.9999 22.1668C23.5736 22.1668 25.6666 20.0738 25.6666 17.5002C25.6652 16.4543 25.3132 15.439 24.6669 14.6167C24.0206 13.7945 23.1172 13.2126 22.1013 12.9642ZM9.33325 14.0002H12.8333V10.5002H15.1666V14.0002H18.6666L13.9999 19.8335L9.33325 14.0002Z" fill="#2D3436"/>
</svg>
