<svg width="576" height="512" viewBox="0 0 576 512" fill="none" xmlns="http://www.w3.org/2000/svg">
<g clip-path="url(#clip0_110_4829)">
<path d="M402.6 83.2001L492.8 173.4C496.6 177.2 496.6 183.4 492.8 187.2L274.4 405.6L181.6 415.9C169.2 417.3 158.7 406.8 160.1 394.4L170.4 301.6L388.8 83.2001C392.6 79.4001 398.8 79.4001 402.6 83.2001ZM564.6 60.3001L515.8 11.5001C500.6 -3.6999 475.9 -3.6999 460.6 11.5001L425.2 46.9001C421.4 50.7001 421.4 56.9001 425.2 60.7001L515.4 150.9C519.2 154.7 525.4 154.7 529.2 150.9L564.6 115.5C579.8 100.2 579.8 75.5001 564.6 60.3001V60.3001ZM384 346.2V448H64V128H293.8C297 128 300 126.7 302.3 124.5L342.3 84.5001C349.9 76.9001 344.5 64.0001 333.8 64.0001H48C21.5 64.0001 0 85.5001 0 112V464C0 490.5 21.5 512 48 512H400C426.5 512 448 490.5 448 464V306.2C448 295.5 435.1 290.2 427.5 297.7L387.5 337.7C385.3 340 384 343 384 346.2Z" fill="#2D3436"/>
</g>
<defs>
<clipPath id="clip0_110_4829">
<rect width="576" height="512" fill="white"/>
</clipPath>
</defs>
</svg>
