<svg width="70" height="62" viewBox="0 0 70 62" fill="none" xmlns="http://www.w3.org/2000/svg">
<path d="M0 8.75C0 3.92383 3.92383 0 8.75 0H61.25C66.0762 0 70 3.92383 70 8.75V52.5C70 57.3262 66.0762 61.25 61.25 61.25H8.75C3.92383 61.25 0 57.3262 0 52.5V8.75ZM44.2695 23.3105C43.6543 22.4082 42.6426 21.875 41.5625 21.875C40.4824 21.875 39.457 22.4082 38.8555 23.3105L26.9609 40.7559L23.3379 36.2305C22.709 35.4512 21.7656 35 20.7812 35C19.7969 35 18.8398 35.4512 18.2246 36.2305L9.47461 47.168C8.68164 48.1523 8.53125 49.5059 9.07813 50.6406C9.625 51.7754 10.7734 52.5 12.0312 52.5H57.9688C59.1855 52.5 60.3066 51.8301 60.8672 50.75C61.4277 49.6699 61.3594 48.3711 60.6758 47.373L44.2695 23.3105ZM15.3125 21.875C18.9355 21.875 21.875 18.9355 21.875 15.3125C21.875 11.6895 18.9355 8.75 15.3125 8.75C11.6895 8.75 8.75 11.6895 8.75 15.3125C8.75 18.9355 11.6895 21.875 15.3125 21.875Z" fill="#FCB900"/>
</svg>
