<svg width="20" height="20" viewBox="0 0 20 20" fill="none" xmlns="http://www.w3.org/2000/svg">
<path d="M18.4725 0.10625C18.5578 0.163297 18.6277 0.240462 18.6761 0.330933C18.7245 0.421403 18.7499 0.522398 18.75 0.625V10C18.75 10.1248 18.7126 10.2468 18.6426 10.3501C18.5727 10.4535 18.4734 10.5336 18.3575 10.58L18.125 10L18.3575 10.58L18.3537 10.5813L18.3463 10.585L18.3175 10.5963C18.1532 10.6616 17.9877 10.7241 17.8212 10.7837C17.4912 10.9025 17.0325 11.0625 16.5125 11.2213C15.4925 11.5363 14.1637 11.875 13.125 11.875C12.0662 11.875 11.19 11.525 10.4275 11.2188L10.3925 11.2063C9.6 10.8875 8.925 10.625 8.125 10.625C7.25 10.625 6.0775 10.9125 5.07875 11.2213C4.63157 11.3606 4.18847 11.5128 3.75 11.6775V19.375C3.75 19.5408 3.68415 19.6997 3.56694 19.8169C3.44973 19.9342 3.29076 20 3.125 20C2.95924 20 2.80027 19.9342 2.68306 19.8169C2.56585 19.6997 2.5 19.5408 2.5 19.375V0.625C2.5 0.45924 2.56585 0.300269 2.68306 0.183058C2.80027 0.065848 2.95924 0 3.125 0C3.29076 0 3.44973 0.065848 3.56694 0.183058C3.68415 0.300269 3.75 0.45924 3.75 0.625V0.9775C4.0325 0.87875 4.37 0.765 4.7375 0.6525C5.7575 0.34 7.0875 0 8.125 0C9.175 0 10.03 0.34625 10.7763 0.64875L10.83 0.67125C11.6075 0.985 12.285 1.25 13.125 1.25C14 1.25 15.1725 0.9625 16.1713 0.65375C16.7404 0.476015 17.3028 0.27755 17.8575 0.05875L17.8813 0.05L17.8863 0.0475H17.8875" fill="#2D3436"/>
</svg>
