<svg width="48" height="48" viewBox="0 0 48 48" fill="none" xmlns="http://www.w3.org/2000/svg">
<g clip-path="url(#clip0_1_445)">
<path fill-rule="evenodd" clip-rule="evenodd" d="M43.125 9.525C39.4875 4.875 34.1625 1.9125 28.275 1.9125C16.875 1.9125 8.5125 12.525 8.5125 24C8.5125 31.9875 13.8375 37.9875 19.725 37.9875C20.2875 37.9875 20.8125 37.95 21.375 37.8375C17.4 34.95 14.8875 29.7 14.8875 24C14.8875 14.925 21.0375 7.8375 28.275 7.8375C36.1875 7.8375 41.6625 15.675 41.6625 24C41.625 30.15 39.45 36.2625 35.5875 40.7625C32.2125 44.7 27.8625 47.175 23.0625 47.9625C23.0625 47.9625 23.475 48 24 48C37.2375 48 48 37.2375 48 24C48 18.5625 46.2 13.5375 43.125 9.525ZM39.4875 24C39.4875 16.0125 34.1625 10.0125 28.275 10.0125C27.7125 10.0125 27.1875 10.05 26.625 10.1625C30.6 13.05 33.1125 18.3 33.1125 24C33.1125 33.075 26.9625 40.1625 19.725 40.1625C11.8125 40.1625 6.3375 32.325 6.3375 24C6.375 17.85 8.55 11.7375 12.4125 7.2375C15.7875 3.3 20.1375 0.825 24.9375 0.0375C24.9375 0.0375 24.525 0 24 0C10.7625 0 0 10.7625 0 24C0 29.4375 1.8 34.4625 4.875 38.475C8.5125 43.125 13.8375 46.05 19.725 46.05C31.125 46.0875 39.4875 35.475 39.4875 24Z" fill="#5429FF"/>
</g>
<defs>
<clipPath id="clip0_1_445">
<rect width="48" height="48" fill="white"/>
</clipPath>
</defs>
</svg>
